<svg width="360" height="264" viewBox="0 0 360 264" fill="none" xmlns="http://www.w3.org/2000/svg">
  <defs>
    <linearGradient id="shell" x1="180" y1="8" x2="180" y2="252" gradientUnits="userSpaceOnUse">
      <stop stop-color="#FAFBFC"/>
      <stop offset="1" stop-color="#E7EDF2"/>
    </linearGradient>
    <linearGradient id="panel" x1="180" y1="54" x2="180" y2="230" gradientUnits="userSpaceOnUse">
      <stop stop-color="#FBFCFD"/>
      <stop offset="1" stop-color="#EDF2F6"/>
    </linearGradient>
    <linearGradient id="tileActive" x1="106" y1="90" x2="106" y2="148" gradientUnits="userSpaceOnUse">
      <stop stop-color="#FFFFFF"/>
      <stop offset="1" stop-color="#E4ECF2"/>
    </linearGradient>
    <linearGradient id="tile" x1="254" y1="90" x2="254" y2="148" gradientUnits="userSpaceOnUse">
      <stop stop-color="#FFFFFF" stop-opacity="0.96"/>
      <stop offset="1" stop-color="#ECF1F5" stop-opacity="0.96"/>
    </linearGradient>
    <radialGradient id="joystickRing" cx="0" cy="0" r="1" gradientUnits="userSpaceOnUse" gradientTransform="translate(180 150) rotate(90) scale(34)">
      <stop stop-color="#DDD7CF"/>
      <stop offset="0.6" stop-color="#CFC8BF"/>
      <stop offset="1" stop-color="#B3ABA1"/>
    </radialGradient>
    <radialGradient id="joystickCap" cx="0" cy="0" r="1" gradientUnits="userSpaceOnUse" gradientTransform="translate(180 150) rotate(90) scale(14)">
      <stop stop-color="#F8F5F0"/>
      <stop offset="1" stop-color="#D8D1C8"/>
    </radialGradient>
    <filter id="shadow-lg" x="0" y="0" width="360" height="264" filterUnits="userSpaceOnUse" color-interpolation-filters="sRGB">
      <feDropShadow dx="0" dy="16" stdDeviation="15" flood-color="#94A3B8" flood-opacity="0.18"/>
    </filter>
    <filter id="shadow-sm" x="0" y="0" width="360" height="264" filterUnits="userSpaceOnUse" color-interpolation-filters="sRGB">
      <feDropShadow dx="0" dy="8" stdDeviation="9" flood-color="#94A3B8" flood-opacity="0.12"/>
    </filter>
  </defs>
  <g id="c8-control-area" filter="url(#shadow-lg)">
    <rect id="shell-base" x="8.5" y="8.5" width="343" height="247" rx="22" fill="url(#shell)" stroke="rgba(160,174,189,0.45)"/>
    <rect id="shell-highlight" x="9" y="9" width="342" height="246" rx="21.5" stroke="rgba(255,255,255,0.88)"/>
    <g id="rotation-rail">
      <rect id="rotation-rail-bg" x="20" y="20" width="320" height="26" rx="13" fill="#F4F1EB" stroke="rgba(151,151,151,0.25)"/>
      <g id="rotation-R1"><rect x="26" y="24" width="42" height="18" rx="6" fill="#FFFFFF" stroke="rgba(163,163,163,0.5)"/><text x="47" y="35.4" text-anchor="middle" font-family="Inter, Arial, sans-serif" font-size="7.5" font-weight="600" fill="#66625B">R1</text></g>
      <g id="rotation-R2"><rect x="74.8" y="24" width="42" height="18" rx="6" fill="rgba(255,255,255,0.52)" stroke="rgba(163,163,163,0.22)"/><text x="95.8" y="35.4" text-anchor="middle" font-family="Inter, Arial, sans-serif" font-size="7.5" font-weight="600" fill="#8D887F">R2</text></g>
      <g id="rotation-R3"><rect x="123.6" y="24" width="42" height="18" rx="6" fill="rgba(255,255,255,0.52)" stroke="rgba(163,163,163,0.22)"/><text x="144.6" y="35.4" text-anchor="middle" font-family="Inter, Arial, sans-serif" font-size="7.5" font-weight="600" fill="#8D887F">R3</text></g>
      <g id="rotation-R4"><rect x="172.4" y="24" width="42" height="18" rx="6" fill="rgba(255,255,255,0.52)" stroke="rgba(163,163,163,0.22)"/><text x="193.4" y="35.4" text-anchor="middle" font-family="Inter, Arial, sans-serif" font-size="7.5" font-weight="600" fill="#8D887F">R4</text></g>
      <g id="rotation-R5"><rect x="221.2" y="24" width="42" height="18" rx="6" fill="rgba(255,255,255,0.52)" stroke="rgba(163,163,163,0.22)"/><text x="242.2" y="35.4" text-anchor="middle" font-family="Inter, Arial, sans-serif" font-size="7.5" font-weight="600" fill="#8D887F">R5</text></g>
      <g id="rotation-R6"><rect x="270" y="24" width="42" height="18" rx="6" fill="rgba(255,255,255,0.52)" stroke="rgba(163,163,163,0.22)"/><text x="291" y="35.4" text-anchor="middle" font-family="Inter, Arial, sans-serif" font-size="7.5" font-weight="600" fill="#8D887F">R6</text></g>
    </g>
    <g id="phase-pad" filter="url(#shadow-sm)">
      <rect id="phase-pad-shell" x="20" y="54" width="320" height="186" rx="16" fill="url(#panel)" stroke="rgba(160,174,189,0.26)"/>
      <rect id="phase-pad-inner-glow" x="21" y="55" width="318" height="184" rx="15" stroke="rgba(255,255,255,0.9)"/>
      <g id="led-track">
        <rect x="32" y="68" width="296" height="164" rx="18" fill="none" stroke="rgba(0,0,0,0.34)" stroke-width="10"/>
        <rect x="32" y="68" width="296" height="164" rx="18" fill="none" stroke="rgba(255,255,255,0.06)" stroke-width="7.5"/>
        <rect x="32" y="68" width="296" height="164" rx="18" fill="none" stroke="rgba(14,14,18,0.36)" stroke-width="6"/>
        <g id="led-pieces">
          <rect x="52.83" y="68.20" width="10" height="3.6" rx="1.8" fill="rgba(249,146,43,0.98)"/>
          <rect x="68.48" y="68.20" width="10" height="3.6" rx="1.8" fill="rgba(249,146,43,0.98)"/>
          <rect x="84.13" y="68.20" width="10" height="3.6" rx="1.8" fill="rgba(249,146,43,0.98)"/>
          <rect x="99.78" y="68.20" width="10" height="3.6" rx="1.8" fill="rgba(249,146,43,0.98)"/>
          <rect x="115.44" y="68.20" width="10" height="3.6" rx="1.8" fill="rgba(249,146,43,0.98)"/>
          <rect x="131.09" y="68.20" width="10" height="3.6" rx="1.8" fill="rgba(249,146,43,0.98)"/>
          <rect x="146.74" y="68.20" width="10" height="3.6" rx="1.8" fill="rgba(249,146,43,0.98)"/>
          <rect x="29" y="160.81" width="10" height="3.6" rx="1.8" fill="rgba(249,146,43,0.98)" transform="rotate(-90 34 162.61)"/>
          <rect x="29" y="145.16" width="10" height="3.6" rx="1.8" fill="rgba(249,146,43,0.98)" transform="rotate(-90 34 146.96)"/>
          <rect x="29" y="129.50" width="10" height="3.6" rx="1.8" fill="rgba(249,146,43,0.98)" transform="rotate(-90 34 131.30)"/>
          <rect x="29" y="113.85" width="10" height="3.6" rx="1.8" fill="rgba(249,146,43,0.98)" transform="rotate(-90 34 115.65)"/>
          <rect x="29" y="98.20" width="10" height="3.6" rx="1.8" fill="rgba(249,146,43,0.98)" transform="rotate(-90 34 100)"/>
          <rect x="41.3" y="79.8" width="10" height="3.6" rx="1.8" fill="rgba(249,146,43,0.98)" transform="rotate(-45 46.3 81.6)"/>
          <rect x="45" y="68.20" width="10" height="3.6" rx="1.8" fill="rgba(249,146,43,0.98)"/>
        </g>
      </g>
      <g id="tiles">
        <rect id="tile-serve" x="48" y="84" width="132" height="66" fill="url(#tileActive)" stroke="rgba(135,154,170,0.22)"/>
        <rect id="tile-defense" x="180" y="84" width="132" height="66" fill="url(#tile)" stroke="rgba(135,154,170,0.22)"/>
        <rect id="tile-receive" x="48" y="150" width="132" height="66" fill="url(#tile)" stroke="rgba(135,154,170,0.22)"/>
        <rect id="tile-attack" x="180" y="150" width="132" height="66" fill="url(#tile)" stroke="rgba(135,154,170,0.22)"/>
        <line x1="180" y1="84" x2="180" y2="216" stroke="rgba(186,198,208,0.5)"/>
        <line x1="48" y1="150" x2="312" y2="150" stroke="rgba(186,198,208,0.5)"/>
        <text x="112" y="123" text-anchor="middle" font-family="Inter, Arial, sans-serif" font-size="18" font-weight="600" fill="#44515F">Serve</text>
        <text x="246" y="123" text-anchor="middle" font-family="Inter, Arial, sans-serif" font-size="18" font-weight="600" fill="#44515F">Defense</text>
        <text x="112" y="189" text-anchor="middle" font-family="Inter, Arial, sans-serif" font-size="18" font-weight="600" fill="#44515F">Receive</text>
        <text x="246" y="189" text-anchor="middle" font-family="Inter, Arial, sans-serif" font-size="18" font-weight="600" fill="#44515F">Attack</text>
      </g>
      <g id="joystick">
        <circle cx="180" cy="150" r="35" fill="rgba(104,96,84,0.12)"/>
        <circle cx="180" cy="150" r="31.5" fill="url(#joystickRing)" stroke="rgba(255,255,255,0.45)"/>
        <circle cx="180" cy="150" r="17" fill="#BBB3A7" opacity="0.45"/>
        <circle cx="180" cy="150" r="13.5" fill="url(#joystickCap)" stroke="rgba(255,255,255,0.6)"/>
      </g>
    </g>
  </g>
</svg>
